<svg xmlns="http://www.w3.org/2000/svg" viewBox="0 0 900 500" role="img" aria-label="Internet access by country (%)"><rect width="900" height="500" fill="#fffdf8"/><text x="40" y="42" font-family="Arial" font-size="22" font-weight="700" fill="#172033">Internet access by country (%)</text><line x1="100" y1="410" x2="850" y2="410" stroke="#172033"/><line x1="100" y1="70" x2="100" y2="410" stroke="#172033"/><polyline points="130,400.4 300,362 470,298 640,234 810,173.2" fill="none" stroke="#315c8c" stroke-width="4"/><text x="120" y="65" font-family="Arial" font-size="13">Brazil</text><polyline points="130,408.4 300,400.4 470,378 640,320.4 810,262.79999999999995" fill="none" stroke="#d5764d" stroke-width="4"/><text x="300" y="65" font-family="Arial" font-size="13">Kenya</text><polyline points="130,282 300,160.39999999999998 470,106 640,96.39999999999998 810,93.19999999999999" fill="none" stroke="#4f8f78" stroke-width="4"/><text x="480" y="65" font-family="Arial" font-size="13">South Korea</text><polyline points="130,282 300,202 470,147.59999999999997 640,128.39999999999998 810,112.39999999999998" fill="none" stroke="#a37a43" stroke-width="4"/><text x="660" y="65" font-family="Arial" font-size="13">Germany</text><text x="115" y="445" font-family="Arial">2000</text><text x="780" y="445" font-family="Arial">2020</text><text x="40" y="475" font-family="Arial" font-size="13" fill="#5b6474">Illustrative practice data · read exact values in the task prompt</text></svg>