<svg xmlns="http://www.w3.org/2000/svg" viewBox="0 0 900 500" role="img" aria-label="Fruit juice production"><rect width="900" height="500" fill="#fffdf8"/><text x="40" y="42" font-family="Arial" font-size="22" font-weight="700" fill="#172033">Fruit juice production</text><g font-family="Arial" font-size="15" fill="#172033"><rect x="35" y="210" width="105" height="62" rx="12" fill="#d9eee4" stroke="#4f8f78"/><text x="42" y="238">Inspect &amp; wash</text><path d="M140 241h16l-6-6m6 6-6 6" stroke="#315c8c" fill="none"/><rect x="157" y="210" width="105" height="62" rx="12" fill="#d9eee4" stroke="#4f8f78"/><text x="164" y="238">Crush</text><path d="M262 241h16l-6-6m6 6-6 6" stroke="#315c8c" fill="none"/><rect x="279" y="210" width="105" height="62" rx="12" fill="#d9eee4" stroke="#4f8f78"/><text x="286" y="238">Separate</text><path d="M384 241h16l-6-6m6 6-6 6" stroke="#315c8c" fill="none"/><rect x="401" y="210" width="105" height="62" rx="12" fill="#d9eee4" stroke="#4f8f78"/><text x="408" y="238">Pasteurise 85°C</text><path d="M506 241h16l-6-6m6 6-6 6" stroke="#315c8c" fill="none"/><rect x="523" y="210" width="105" height="62" rx="12" fill="#d9eee4" stroke="#4f8f78"/><text x="530" y="238">Cool &amp; blend</text><path d="M628 241h16l-6-6m6 6-6 6" stroke="#315c8c" fill="none"/><rect x="645" y="210" width="105" height="62" rx="12" fill="#d9eee4" stroke="#4f8f78"/><text x="652" y="238">Fill &amp; seal</text><path d="M750 241h16l-6-6m6 6-6 6" stroke="#315c8c" fill="none"/><rect x="767" y="210" width="105" height="62" rx="12" fill="#d9eee4" stroke="#4f8f78"/><text x="774" y="238">Label &amp; pack</text></g><text x="40" y="475" font-family="Arial" font-size="13" fill="#5b6474">Illustrative practice data · read exact values in the task prompt</text></svg>